<svg width="121" height="36" viewBox="0 0 121 36" fill="none" xmlns="http://www.w3.org/2000/svg">
<path d="M11.4701 21.7121V4.96486L5.43255 8.64609L5.06317 8.87529H5.03975V20.9836L11.4701 21.7121Z" fill="currentColor"/>
<path d="M5.29013 24.5399L10.5774 24.2751L2.92943 22.7902L0.387116 22.9711L5.29013 24.5399Z" fill="currentColor"/>
<path d="M10.5774 24.2751V22.2021L2.92943 21.0785V22.7902L10.5774 24.2751Z" fill="currentColor"/>
<path d="M11.4701 22.1966V21.7121L5.03975 20.9836L2.92943 21.0785L10.5774 22.2021L11.4701 22.1966Z" fill="currentColor"/>
<path d="M9.0608 4.93401L3.02389 8.87529H5.03975V8.87374L5.43255 8.64609L11.4701 4.96486L9.0608 4.93401Z" fill="currentColor"/>
<path d="M7.52552 3.82032L0.870064 8.22984L2.729 8.2369L3.02389 8.03019L9.0608 3.83834L49.5815 4.31402L50.4539 4.32426L7.52552 3.82032Z" fill="currentColor"/>
<path d="M60.9736 6.89639L60.9744 0.393131L50.4539 2.89642V4.32426L49.5815 4.31402V5.45299L49.359 5.4512V6.90268L60.9736 6.89639Z" fill="currentColor"/>
<path d="M60.9706 29.8891L60.9734 8.44425L58.7308 8.45149V9.66738L57.7913 9.94604V26.7124L57.805 29.4711L60.9706 29.8891Z" fill="currentColor"/>
<path d="M74.4214 7.27235L60.9734 8.44425H63.9235L74.4968 7.27381L74.4214 7.27235Z" fill="currentColor"/>
<path d="M112.203 8.00479V9.02722L120.613 8.16782L112.203 8.00479Z" fill="currentColor"/>
<path d="M108.194 9.8684L112.203 9.46512L74.9232 8.74108L75.2992 8.8349L108.196 9.38916L108.194 9.8684Z" fill="currentColor"/>
<path d="M80.1517 11.5009L69.8787 11.3426L69.8753 17.0965L69.8753 17.1044L80.1517 16.8499V11.5009Z" fill="currentColor"/>
<path d="M26.6085 27.7635L20.9687 26.6149L19.9701 26.7487L24.9929 27.7635H26.6085Z" fill="currentColor"/>
<path d="M19.9701 26.7487V33.3741L24.9929 34.1181V27.7635L19.9701 26.7487Z" fill="currentColor"/>
<path d="M20.9687 26.6149L26.6085 27.7635L26.5658 13.4517L21.0522 14.3714L20.9992 22.1372L20.9687 26.6149Z" fill="currentColor"/>
<path d="M26.5553 9.94604L21.0522 10.9009V14.3714L26.5658 13.4517L26.5553 9.94604Z" fill="currentColor"/>
<path d="M16.1196 10.1548L18.6522 10.1412L24.2185 8.56298L58.7308 8.45149L60.9734 8.44425L21.8677 8.57057L16.1196 10.1548Z" fill="currentColor"/>
<path d="M26.5553 9.94604H35.8612H57.7913L58.7308 9.66738L24.2185 9.71979L18.6276 10.9009H21.0522L26.5553 9.94604Z" fill="currentColor"/>
<path d="M5.29013 24.5399L0.387116 22.9711L0.386965 31.9133L5.29013 35.6V24.5399Z" fill="currentColor"/>
<path d="M100.952 16.4842V32.1204L94.9247 32.3286L94.9247 16.4844L100.952 16.4842Z" fill="currentColor"/>
<path d="M80.1517 11.5009L108.194 10.5126L66.3785 10.5352L69.8712 10.5333L69.8787 11.3426L80.1517 11.5009Z" fill="currentColor"/>
<path d="M9.0608 4.93401V3.83834L3.02389 8.03019V8.87529L9.0608 4.93401Z" fill="currentColor"/>
<path d="M0.870064 6.92798V8.22984L7.52552 3.82032L7.50411 2.22449L0.870064 6.92798Z" fill="currentColor"/>
<path d="M16.1196 10.1548L21.8677 8.57057L21.8499 6.91756L20.8322 7.25503L16.1196 8.81334V10.1548Z" fill="currentColor"/>
<path d="M24.2185 8.56298L18.6522 10.1412L18.6276 10.9009L24.2185 9.71979V8.56298Z" fill="currentColor"/>
<path d="M60.9736 6.89639L60.9734 8.44425L74.4214 7.27235V5.31215L69.8753 5.84771L60.9736 6.89639Z" fill="currentColor"/>
<path d="M63.9235 9.57403L74.9232 8.74108L74.9176 7.28197L74.4968 7.27381L63.9235 8.44425V9.57403Z" fill="currentColor"/>
<path d="M66.3721 9.57403L66.3785 10.5352L75.2992 10.1698V8.8349L66.3721 9.57403Z" fill="currentColor"/>
<path d="M36.6136 13.3687V9.94604H35.8612L36.6136 13.3687Z" fill="currentColor"/>
<path d="M47.0937 13.3046V9.94604H46.3412L47.0937 13.3046Z" fill="currentColor"/>
<path d="M20.8322 7.25503V5.08477L20.2248 5.07699L20.8322 7.25503Z" fill="currentColor"/>
<path d="M36.6136 13.3687V9.94604H35.8612L36.6136 13.3687Z" fill="currentColor"/>
<path d="M31.1254 6.91254V5.21661L30.6121 5.21003L31.1254 6.91254Z" fill="currentColor"/>
<path fill-rule="evenodd" clip-rule="evenodd" d="M70.2622 0L70.2623 5.41971L74.4033 4.93187L121 6.11901V8.51002L112.59 9.36943V9.80789L108.581 10.2111L108.58 10.8789L80.5386 11.8672V16.4605L94.5378 16.1139V16.1047L94.9066 16.1047L95.309 16.0948V16.1047L101.339 16.1045V32.487L95.309 32.6952V32.7592L94.8875 32.7098L94.5377 32.7219V32.6687L68.3206 29.5938L60.9627 30.2712L57.8069 29.8545L24.9916 34.5019L19.9708 33.7582L5.18592 36L0 32.1007L0.000160309 22.6179L2.54247 22.4371V20.7158L4.65279 20.621V9.25499H2.63693V8.61624L0.483102 8.60807V6.7339L7.3817 1.84284L50.4107 2.51601L60.9279 0.0135125L70.2622 0ZM50.0669 3.2701L7.89628 2.61036L7.90748 3.44509L50.0669 3.94001V3.2701ZM7.8643 4.20401L7.64183 4.2014L2.12743 7.85492L2.60565 7.85674L2.79896 7.72124L2.80036 7.72026L7.8643 4.20401ZM4.30401 8.49561H4.93132L5.23202 8.32134L10.1418 5.32775L9.17544 5.31522L4.30401 8.49561ZM11.0832 5.64783L5.63938 8.967L5.42671 9.09896V20.6453L11.0832 21.2861V5.64783ZM10.9643 22.5794V24.6359L5.67709 24.9007V35.1571L19.5832 33.0486V26.4173L20.584 26.2833L20.6096 22.5193L10.9643 22.5794ZM20.6148 21.7599L20.6652 14.3714V11.2806H18.2281L18.2527 10.523L15.7326 10.5366V9.14337H11.8571V21.8145L20.6148 21.7599ZM11.8571 8.38399H16.1427V8.405L20.3624 7.009L19.929 5.45469L11.8571 5.35V8.38399ZM16.5065 9.08606V9.65376L21.4776 8.2837L21.4686 7.4448L16.5065 9.08606ZM22.241 7.29705L22.2506 8.18965L60.5865 8.06581L60.5866 7.2763L22.241 7.29705ZM49.746 6.52278L60.5867 6.51692L60.5874 0.875919L50.8409 3.19504V4.70852L49.9685 4.69828V5.8358L49.746 5.83402V6.52278ZM49.1945 5.06832V4.6892L9.44776 4.2226V4.55925L39.878 4.954H40.269L49.1945 5.06832ZM30.3229 5.58949L21.2192 5.47142V6.72556L21.7256 6.55803L21.7261 6.55786L21.7263 6.55778L21.7864 6.53791L30.6075 6.53314L30.3229 5.58949ZM31.5124 6.53265L39.7747 6.52818L39.5726 5.70945L31.5124 5.60491V6.53265ZM40.6535 6.5277L48.9721 6.5232V5.82522L40.6535 5.72294V6.5277ZM8.67384 4.73059V4.57219L4.85743 7.22219L8.67384 4.73059ZM61.3614 0.772265L61.3606 6.46839L69.4883 5.51088L69.4883 0.7605L61.3614 0.772265ZM61.3605 7.23323L74.0344 5.74015V6.92489L61.3604 8.02935L61.3605 7.23323ZM61.3603 8.82394H63.5366V9.95373H65.9877L65.994 10.9151L69.4843 10.9132V16.7261L68.3181 16.7541L68.3161 16.7542L67.9386 16.7632V28.8662L61.3576 29.4721L61.3603 8.82394ZM60.5837 29.4549L60.5864 8.8252L59.1178 8.82994V9.94927L58.1785 10.2279L58.1917 29.1391L60.5837 29.4549ZM58.3439 9.28828V8.83244L24.6055 8.94142V9.33952L58.3439 9.28828ZM23.8316 9.41315V9.06792L19.0541 10.4224L23.8316 9.41315ZM21.4391 11.2194V13.9217L26.1779 13.1313L26.1697 10.3985L21.4391 11.2194ZM26.9434 10.3257L26.9515 13.0481L36.1349 12.9919L35.5488 10.3257H26.9434ZM37.0006 12.9866L46.6131 12.9279L46.0301 10.3257H37.0006V12.9866ZM47.4806 12.9226L57.4043 12.8619V10.3257H47.4806V12.9226ZM57.4043 13.6213L26.9538 13.8075L26.9943 27.3706L57.4043 26.3455V13.6213ZM57.4063 27.1053L26.6152 28.1432H25.3798V33.6796L57.4164 29.1425L57.4063 27.1053ZM24.6059 33.6768V28.0729L20.3571 27.2145V33.0474L24.6059 33.6768ZM26.2202 27.2966L26.1802 13.9012L21.4369 14.6924L21.3578 26.3064L26.2202 27.2966ZM68.7125 28.875L94.535 31.9036V16.8736L80.1614 17.2295L80.1611 17.2295L69.884 17.484L68.7125 17.5062V28.875ZM79.7647 16.4794L70.2625 16.7075L70.2654 11.7283L79.7647 11.8747V16.4794ZM80.1478 11.1212L86.3056 10.9041L70.2617 10.9128L70.2622 10.9687L80.1478 11.1212ZM112.59 8.60594L114.349 8.42616L112.59 8.39206V8.60594ZM120.226 7.78056V6.85893L74.8084 5.70183V6.85723L74.8997 6.84712L120.226 7.78056ZM64.3105 8.78352V9.16392L74.5349 8.38967L74.5321 7.65427L74.5148 7.65393L64.3105 8.78352ZM75.3061 7.66927L75.3088 8.3688L111.816 9.07785V8.37705L75.3061 7.66927ZM66.7614 9.92284L66.7628 10.1395L74.9123 9.80559V9.24798L66.7614 9.92284ZM75.6862 9.22117V9.79408L107.805 10.1288L107.807 9.76235L75.6862 9.22117ZM95.3116 31.9353L100.565 31.7539V16.8639L95.3117 16.8641L95.3116 31.9353ZM4.90316 34.8307V24.8155L0.774071 23.4943L0.773932 31.7259L4.90316 34.8307ZM2.38155 23.2099L5.34197 24.1571L7.43601 24.0522L2.90544 23.1726L2.38155 23.2099ZM3.31639 22.4783L10.1904 23.8129V22.5292L3.31639 21.5193V22.4783ZM1.25703 7.51532L7.13584 3.62036L7.12699 2.96031L1.25703 7.12207V7.51532Z" fill="currentColor"/>
</svg>
